# xmcd
# 
# Track frame offsets:
#     150
#     17693
#     37193
#     55488
#     71517
#     88984
#     105606
#     125307
#     142509
#     159371
# 
# Disc length: 2304
# 
# Revision: 0
# Processed by: cddbd v1.5.2PL0 Copyright (c) Steve Scherf et al.
# Submitted via: fre:ac v1.0.17
# 
DISCID=8008fe0a
DTITLE=Red Dirt Skinners - Sinking The Mary Rose
DYEAR=2013
DGENRE=Blues
TTITLE0=A Song About You
TTITLE1=Browns Ferry Blues
TTITLE2=Alone
TTITLE3=Just 18
TTITLE4=Idabel Blues
TTITLE5=Stillwater
TTITLE6=Last Card
TTITLE7=Mr Landlord
TTITLE8=Black Eyes
TTITLE9=Not The Mary Rose
EXTD=
EXTT0=
EXTT1=
EXTT2=
EXTT3=
EXTT4=
EXTT5=
EXTT6=
EXTT7=
EXTT8=
EXTT9=
PLAYORDER=
